<svg data-v-423bf9ae="" xmlns="http://www.w3.org/2000/svg" viewBox="0 0 516.8639239408078 163" class="iconAbove"><!----><!----><!----><g data-v-423bf9ae="" id="081e5960-0c3e-4b59-b8f4-62e1f24a7004" fill="white" transform="matrix(5.917159562968884,0,0,5.917159562968884,-4.1420094945369215,80.5739650052325)"><path d="M7.81 9.52C7.39 9.11 6.79 8.86 6.01 8.75C6.33 8.67 6.61 8.55 6.86 8.40C7.11 8.25 7.34 8.08 7.50 7.87C7.67 7.66 7.81 7.43 7.90 7.20C7.98 6.96 8.04 6.71 8.04 6.44C8.04 6.05 7.95 5.68 7.83 5.38C7.70 5.07 7.49 4.80 7.22 4.58C6.96 4.37 6.62 4.20 6.20 4.09C5.78 3.98 5.29 3.92 4.73 3.92L1.89 3.92L0.70 3.92L0.70 4.19C0.70 4.34 0.80 4.42 0.98 4.44L1.12 4.44C1.19 4.44 1.29 4.45 1.43 4.45C1.57 4.45 1.72 4.47 1.89 4.47L1.89 13.26C1.72 13.26 1.57 13.27 1.43 13.27C1.29 13.27 1.19 13.29 1.12 13.29L0.98 13.29C0.80 13.30 0.71 13.38 0.71 13.54L0.71 13.82L1.89 13.82L5.10 13.82C5.63 13.82 6.09 13.76 6.51 13.64C6.93 13.51 7.28 13.34 7.56 13.10C7.84 12.87 8.06 12.59 8.22 12.25C8.37 11.91 8.44 11.54 8.44 11.12C8.44 10.46 8.23 9.93 7.81 9.52ZM2.60 4.48L4.73 4.48C5.61 4.48 6.27 4.66 6.69 5.00C7.11 5.35 7.32 5.84 7.32 6.51C7.32 6.76 7.28 7.03 7.18 7.27C7.08 7.50 6.93 7.71 6.72 7.91C6.51 8.11 6.24 8.26 5.92 8.37C5.60 8.48 5.21 8.55 4.75 8.55L2.60 8.55ZM7.06 12.68C6.61 13.06 5.95 13.24 5.08 13.24L2.60 13.24L2.60 9.07L5.10 9.07C5.52 9.07 5.88 9.11 6.20 9.21C6.52 9.31 6.80 9.45 7.03 9.62C7.25 9.80 7.42 10.00 7.55 10.25C7.66 10.50 7.73 10.79 7.73 11.10C7.73 11.79 7.50 12.31 7.06 12.68ZM13.36 3.79C12.98 3.79 12.64 3.86 12.33 3.98C12.03 4.09 11.76 4.26 11.54 4.47C11.31 4.68 11.14 4.90 11.03 5.18C10.92 5.46 10.86 5.77 10.86 6.09C10.86 6.50 10.93 6.87 11.10 7.22C11.27 7.57 11.51 7.92 11.84 8.30C11.51 8.43 11.21 8.61 10.92 8.81C10.63 9.00 10.37 9.23 10.16 9.48C9.95 9.73 9.79 10.01 9.66 10.32C9.53 10.63 9.49 10.95 9.49 11.28C9.49 11.70 9.56 12.07 9.73 12.40C9.90 12.74 10.12 13.02 10.39 13.24C10.65 13.47 10.96 13.65 11.30 13.76C11.63 13.87 11.98 13.93 12.33 13.93C12.70 13.93 13.05 13.89 13.38 13.80C13.72 13.72 14.04 13.59 14.34 13.45C14.63 13.31 14.90 13.13 15.15 12.92C15.40 12.71 15.64 12.49 15.85 12.25L17.28 13.66C17.35 13.73 17.40 13.78 17.46 13.79C17.51 13.80 17.58 13.82 17.67 13.82L18.28 13.82L16.21 11.77C16.51 11.35 16.72 10.91 16.87 10.44C17.02 9.98 17.11 9.52 17.12 9.09L16.74 9.09C16.69 9.09 16.63 9.11 16.60 9.14C16.58 9.17 16.56 9.23 16.55 9.28C16.51 9.62 16.44 9.97 16.31 10.33C16.18 10.70 16.02 11.05 15.81 11.38L12.68 8.30C12.28 7.90 11.97 7.53 11.77 7.18C11.58 6.83 11.48 6.45 11.48 6.08C11.48 5.82 11.54 5.59 11.62 5.38C11.70 5.17 11.83 4.97 12.00 4.82C12.17 4.66 12.36 4.54 12.59 4.45C12.81 4.37 13.08 4.33 13.36 4.33C13.64 4.33 13.86 4.37 14.07 4.47C14.27 4.56 14.43 4.69 14.57 4.83C14.71 4.97 14.81 5.12 14.90 5.28C14.98 5.43 15.04 5.57 15.06 5.70C15.08 5.75 15.11 5.78 15.13 5.81C15.16 5.84 15.20 5.85 15.25 5.85C15.30 5.85 15.39 5.85 15.50 5.82C15.55 5.81 15.60 5.80 15.67 5.78C15.65 5.52 15.60 5.26 15.47 5.03C15.34 4.79 15.19 4.58 14.98 4.40C14.77 4.21 14.52 4.07 14.24 3.96C13.96 3.85 13.66 3.79 13.36 3.79ZM10.16 11.24C10.16 10.96 10.21 10.70 10.30 10.44C10.40 10.19 10.53 9.95 10.70 9.73C10.86 9.51 11.09 9.30 11.34 9.11C11.59 8.93 11.86 8.78 12.17 8.65C12.19 8.68 12.22 8.69 12.25 8.72L15.46 11.89C15.27 12.11 15.09 12.31 14.88 12.49C14.67 12.67 14.43 12.82 14.18 12.96C13.93 13.10 13.65 13.20 13.36 13.27C13.06 13.34 12.75 13.38 12.43 13.38C12.17 13.38 11.90 13.33 11.63 13.24C11.37 13.16 11.13 13.03 10.91 12.85C10.68 12.67 10.51 12.45 10.37 12.18C10.23 11.91 10.16 11.61 10.16 11.24ZM26.43 9.52C26.01 9.11 25.41 8.86 24.63 8.75C24.95 8.67 25.23 8.55 25.48 8.40C25.73 8.25 25.96 8.08 26.12 7.87C26.29 7.66 26.43 7.43 26.52 7.20C26.60 6.96 26.66 6.71 26.66 6.44C26.66 6.05 26.57 5.68 26.45 5.38C26.32 5.07 26.11 4.80 25.84 4.58C25.58 4.37 25.24 4.20 24.82 4.09C24.40 3.98 23.91 3.92 23.35 3.92L20.51 3.92L19.32 3.92L19.32 4.19C19.32 4.34 19.42 4.42 19.60 4.44L19.74 4.44C19.81 4.44 19.91 4.45 20.05 4.45C20.19 4.45 20.34 4.47 20.51 4.47L20.51 13.26C20.34 13.26 20.19 13.27 20.05 13.27C19.91 13.27 19.81 13.29 19.74 13.29L19.60 13.29C19.42 13.30 19.33 13.38 19.33 13.54L19.33 13.82L20.51 13.82L23.72 13.82C24.25 13.82 24.71 13.76 25.13 13.64C25.55 13.51 25.90 13.34 26.18 13.10C26.46 12.87 26.68 12.59 26.84 12.25C26.99 11.91 27.06 11.54 27.06 11.12C27.06 10.46 26.85 9.93 26.43 9.52ZM21.22 4.48L23.35 4.48C24.23 4.48 24.89 4.66 25.31 5.00C25.73 5.35 25.94 5.84 25.94 6.51C25.94 6.76 25.90 7.03 25.80 7.27C25.70 7.50 25.55 7.71 25.34 7.91C25.13 8.11 24.86 8.26 24.54 8.37C24.22 8.48 23.83 8.55 23.37 8.55L21.22 8.55ZM25.68 12.68C25.23 13.06 24.57 13.24 23.70 13.24L21.22 13.24L21.22 9.07L23.72 9.07C24.14 9.07 24.50 9.11 24.82 9.21C25.14 9.31 25.42 9.45 25.65 9.62C25.87 9.80 26.04 10.00 26.17 10.25C26.28 10.50 26.35 10.79 26.35 11.10C26.35 11.79 26.12 12.31 25.68 12.68ZM40.63 6.80C40.40 6.19 40.08 5.68 39.66 5.25C39.24 4.82 38.75 4.48 38.18 4.26C37.60 4.03 36.95 3.92 36.25 3.92L32.82 3.92L31.63 3.92L31.63 4.19C31.63 4.34 31.72 4.42 31.91 4.44L32.05 4.44C32.12 4.44 32.21 4.45 32.35 4.45C32.49 4.45 32.65 4.47 32.82 4.47L32.82 13.26C32.65 13.26 32.49 13.27 32.35 13.27C32.21 13.27 32.12 13.29 32.05 13.29L31.91 13.29C31.72 13.30 31.63 13.38 31.63 13.54L31.63 13.82L32.82 13.82L36.25 13.82C36.95 13.82 37.60 13.71 38.18 13.48C38.75 13.26 39.24 12.92 39.66 12.49C40.08 12.05 40.40 11.54 40.63 10.92C40.85 10.30 40.98 9.63 40.98 8.86C40.98 8.11 40.85 7.42 40.63 6.80ZM39.94 10.72C39.75 11.27 39.49 11.72 39.14 12.10C38.79 12.47 38.37 12.75 37.88 12.95C37.39 13.15 36.85 13.24 36.25 13.24L33.53 13.24L33.53 4.49L36.25 4.49C36.85 4.49 37.39 4.59 37.88 4.79C38.37 4.98 38.79 5.26 39.14 5.64C39.49 6.02 39.75 6.47 39.94 7.01C40.14 7.56 40.24 8.18 40.24 8.86C40.24 9.56 40.14 10.18 39.94 10.72ZM42.80 3.91L42.21 3.91L42.21 5.95L42.28 7.03C42.29 7.11 42.31 7.17 42.35 7.21C42.39 7.25 42.43 7.28 42.50 7.28C42.59 7.28 42.64 7.25 42.67 7.21C42.70 7.17 42.73 7.11 42.74 7.03L42.80 5.95ZM52.60 13.22L52.14 13.17L48.36 3.91L47.64 3.91L43.85 13.17L43.40 13.22C43.22 13.23 43.13 13.33 43.13 13.50L43.13 13.82L43.58 13.82L43.88 13.82L44.13 13.82L44.23 13.82L45.54 13.82L45.54 13.50C45.54 13.31 45.43 13.23 45.22 13.22C45.21 13.22 45.18 13.20 45.14 13.20C45.09 13.20 45.04 13.19 44.94 13.19C44.84 13.19 44.72 13.19 44.58 13.17L45.56 10.75L45.63 10.57L50.36 10.57L50.43 10.75L51.41 13.17C51.27 13.19 51.16 13.19 51.06 13.19C50.96 13.19 50.89 13.20 50.85 13.20C50.81 13.20 50.78 13.22 50.76 13.22C50.55 13.23 50.44 13.31 50.44 13.50L50.44 13.82L51.76 13.82L51.86 13.82L52.12 13.82L52.40 13.82L52.86 13.82L52.86 13.50C52.86 13.33 52.78 13.23 52.60 13.22ZM47.80 5.22C47.82 5.14 47.87 5.04 47.89 4.94C47.92 4.84 47.96 4.75 47.99 4.63C48.02 4.75 48.06 4.84 48.09 4.94C48.12 5.04 48.16 5.12 48.19 5.21L50.15 10.04L45.85 10.04ZM59.70 13.29L59.60 13.29L59.37 13.29C59.28 13.29 59.16 13.27 59.05 13.27L59.05 9.28C59.05 8.89 59.01 8.55 58.91 8.23C58.81 7.91 58.67 7.64 58.49 7.42C58.31 7.20 58.07 7.03 57.79 6.92C57.51 6.79 57.19 6.73 56.81 6.73C56.31 6.73 55.86 6.83 55.45 7.01C55.05 7.20 54.67 7.48 54.31 7.84L54.42 8.05C54.46 8.13 54.53 8.18 54.63 8.18C54.70 8.18 54.80 8.12 54.89 8.02C54.99 7.92 55.13 7.84 55.30 7.73C55.47 7.62 55.65 7.52 55.89 7.42C56.13 7.32 56.41 7.28 56.74 7.28C57.29 7.28 57.71 7.45 57.99 7.80C58.27 8.15 58.39 8.64 58.39 9.28L58.39 10.01C57.61 10.02 56.94 10.09 56.38 10.21C55.82 10.32 55.36 10.47 54.99 10.65C54.63 10.84 54.38 11.06 54.21 11.31C54.04 11.56 53.96 11.83 53.96 12.12C53.96 12.45 54.01 12.73 54.11 12.95C54.22 13.17 54.36 13.36 54.53 13.50C54.70 13.64 54.91 13.75 55.13 13.82C55.36 13.89 55.58 13.93 55.82 13.93C56.10 13.93 56.36 13.90 56.60 13.85C56.84 13.79 57.05 13.71 57.26 13.61C57.47 13.51 57.67 13.38 57.86 13.23C58.04 13.08 58.23 12.91 58.42 12.73L58.52 13.62C58.55 13.75 58.65 13.82 58.79 13.82L58.80 13.82L59.05 13.82L59.98 13.82L59.98 13.54C59.98 13.38 59.88 13.30 59.70 13.29ZM58.39 12.26C58.23 12.43 58.07 12.60 57.90 12.74C57.74 12.88 57.55 13.01 57.36 13.12C57.16 13.23 56.95 13.30 56.73 13.36C56.50 13.41 56.25 13.44 55.99 13.44C55.80 13.44 55.62 13.43 55.45 13.37C55.29 13.31 55.15 13.24 55.02 13.13C54.89 13.02 54.78 12.88 54.71 12.71C54.63 12.54 54.60 12.35 54.60 12.11C54.60 11.86 54.67 11.63 54.82 11.44C54.98 11.24 55.20 11.09 55.51 10.95C55.82 10.81 56.21 10.70 56.69 10.61C57.16 10.53 57.74 10.47 58.39 10.46ZM67.52 6.86L67.00 6.86L65.60 6.86L65.60 7.13C65.60 7.28 65.70 7.36 65.88 7.38L65.97 7.38C66.00 7.38 66.02 7.39 66.07 7.39L66.28 7.39C66.37 7.39 66.49 7.41 66.61 7.41L64.47 12.52C64.43 12.61 64.39 12.73 64.36 12.82C64.33 12.92 64.32 13.02 64.29 13.12C64.27 13.09 64.27 13.05 64.26 12.98C64.25 12.91 64.23 12.85 64.22 12.82C64.19 12.73 64.16 12.63 64.12 12.52L61.98 7.41C62.13 7.41 62.29 7.39 62.40 7.39C62.51 7.39 62.59 7.38 62.62 7.38L62.71 7.38C62.89 7.36 62.99 7.28 62.99 7.13L62.99 6.86L61.57 6.86L61.05 6.86L60.55 6.86L60.55 7.13C60.55 7.28 60.63 7.36 60.82 7.38C60.82 7.38 60.97 7.38 61.28 7.39L63.99 13.82L64.58 13.82L67.28 7.39L67.55 7.39C67.63 7.39 67.68 7.38 67.70 7.38L67.77 7.38C67.96 7.36 68.05 7.28 68.05 7.13L68.05 6.86ZM70.01 4.89C70.07 4.94 70.14 4.98 70.21 5.01C70.28 5.04 70.36 5.07 70.45 5.07C70.53 5.07 70.62 5.04 70.69 5.01C70.76 4.98 70.83 4.94 70.88 4.89C70.94 4.83 70.99 4.76 71.02 4.69C71.05 4.62 71.08 4.54 71.08 4.45C71.08 4.37 71.05 4.30 71.02 4.21C70.99 4.14 70.94 4.07 70.88 4.02C70.83 3.96 70.76 3.91 70.69 3.88C70.62 3.85 70.53 3.84 70.45 3.84C70.36 3.84 70.28 3.85 70.21 3.88C70.14 3.91 70.07 3.96 70.01 4.02C69.96 4.07 69.92 4.14 69.89 4.21C69.86 4.28 69.83 4.37 69.83 4.45C69.83 4.54 69.86 4.62 69.89 4.69C69.92 4.76 69.96 4.83 70.01 4.89ZM71.51 13.29L71.44 13.29L71.33 13.29C71.29 13.29 71.22 13.27 71.12 13.27C71.02 13.27 70.91 13.26 70.78 13.26L70.78 6.85L70.11 6.85L69.10 6.85L69.10 7.13C69.10 7.28 69.20 7.36 69.38 7.38L69.45 7.38C69.48 7.38 69.52 7.39 69.57 7.39L69.78 7.39C69.87 7.39 69.99 7.41 70.11 7.41L70.11 13.26C69.96 13.26 69.82 13.29 69.71 13.29L69.47 13.29L69.38 13.29C69.20 13.30 69.10 13.38 69.10 13.54L69.10 13.82L70.11 13.82L70.78 13.82L71.79 13.82L71.79 13.54C71.79 13.38 71.69 13.30 71.51 13.29ZM80.29 13.29L80.22 13.29L80.11 13.29C80.07 13.29 80.00 13.27 79.90 13.27C79.80 13.27 79.69 13.26 79.56 13.26L79.56 9.37C79.56 8.96 79.51 8.60 79.41 8.27C79.31 7.95 79.17 7.67 78.97 7.45C78.78 7.22 78.54 7.06 78.25 6.93C77.95 6.80 77.62 6.75 77.24 6.75C76.72 6.75 76.24 6.87 75.82 7.11C75.40 7.36 75.04 7.67 74.72 8.08L74.66 7.03C74.65 6.92 74.58 6.86 74.45 6.86L74.09 6.86L73.08 6.86L73.08 7.13C73.08 7.28 73.16 7.36 73.35 7.38L73.43 7.38C73.46 7.38 73.49 7.39 73.53 7.39L73.74 7.39C73.84 7.39 73.96 7.41 74.09 7.41L74.09 13.26C73.92 13.26 73.78 13.29 73.67 13.29L73.44 13.29L73.35 13.29C73.16 13.30 73.08 13.38 73.08 13.54L73.08 13.82L74.09 13.82L74.75 13.82L75.75 13.82L75.75 13.54C75.75 13.38 75.67 13.30 75.49 13.29L75.40 13.29L75.31 13.29C75.26 13.29 75.19 13.27 75.10 13.27C75.00 13.27 74.87 13.26 74.75 13.26L74.75 8.60C75.05 8.19 75.40 7.87 75.80 7.63C76.19 7.39 76.61 7.28 77.07 7.28C77.69 7.28 78.15 7.46 78.44 7.83C78.74 8.20 78.89 8.71 78.89 9.37L78.89 13.82L79.56 13.82L80.57 13.82L80.57 13.54C80.57 13.38 80.47 13.30 80.29 13.29ZM84.88 6.73C84.38 6.73 83.93 6.83 83.54 7.00C83.15 7.17 82.81 7.41 82.53 7.71C82.25 8.02 82.05 8.40 81.91 8.85C81.77 9.30 81.69 9.79 81.69 10.33C81.69 10.88 81.77 11.37 81.91 11.80C82.05 12.24 82.25 12.63 82.53 12.94C82.81 13.24 83.15 13.48 83.54 13.65C83.93 13.82 84.38 13.90 84.88 13.90C85.39 13.90 85.82 13.82 86.21 13.65C86.60 13.48 86.94 13.24 87.21 12.94C87.47 12.63 87.70 12.24 87.84 11.80C87.98 11.37 88.05 10.88 88.05 10.33C88.05 9.79 87.98 9.30 87.84 8.85C87.70 8.40 87.47 8.02 87.21 7.71C86.94 7.41 86.60 7.17 86.21 7.00C85.82 6.83 85.39 6.73 84.88 6.73ZM84.88 13.38C84.46 13.38 84.10 13.31 83.79 13.17C83.48 13.03 83.22 12.82 83.01 12.56C82.80 12.29 82.66 11.97 82.54 11.59C82.43 11.21 82.39 10.79 82.39 10.33C82.39 9.87 82.43 9.45 82.54 9.07C82.66 8.69 82.80 8.37 83.01 8.11C83.22 7.84 83.48 7.62 83.79 7.48C84.10 7.34 84.46 7.27 84.88 7.27C85.30 7.27 85.65 7.34 85.96 7.48C86.27 7.62 86.53 7.84 86.74 8.11C86.95 8.37 87.11 8.69 87.21 9.07C87.30 9.45 87.36 9.87 87.36 10.33C87.36 10.79 87.30 11.21 87.21 11.59C87.11 11.97 86.95 12.29 86.74 12.56C86.53 12.82 86.27 13.03 85.96 13.17C85.65 13.31 85.30 13.38 84.88 13.38Z"></path></g><!----><g data-v-423bf9ae="" id="732bdb0f-1c4c-41c9-937e-1d63628ff563" transform="matrix(1.5821301141773731,0,0,1.5821301141773731,180.403873740569,-28.804917528906657)" stroke="none" fill="white"><path d="M84.494 32.769c-6.481-1.252-13.045-.589-18.771 2.029a30.68 30.68 0 0 1 1.063 7.998c0 9.552-4.4 18.414-12.171 24.791 8.304.499 16.402-2.143 22.343-8.083 6.984-6.985 9.427-16.958 7.536-26.735z"></path><path d="M86.757 49.471c-1.496 4.631-4.017 8.841-7.516 12.338-5.86 5.86-13.905 9.107-22.653 9.107h-.001c-.388 0-.78-.013-1.172-.03 6.388 3.98 13.913 5.579 21.388 3.896 9.637-2.168 17.033-9.289 20.663-18.562-3.168-2.981-6.81-5.282-10.709-6.749zM43.299 70.916c-8.748 0-16.793-3.247-22.654-9.108-3.498-3.498-6.021-7.706-7.517-12.336-3.899 1.467-7.54 3.768-10.707 6.749 3.63 9.272 11.026 16.394 20.663 18.562 7.475 1.683 15 .084 21.386-3.896-.392.017-.783.029-1.171.029z"></path><path d="M33.174 42.795c0-2.727.362-5.396 1.054-7.969-5.742-2.642-12.33-3.315-18.837-2.058-1.89 9.777.553 19.75 7.538 26.734 5.957 5.957 14.084 8.599 22.411 8.079-7.767-6.375-12.166-15.235-12.166-24.786z"></path><path d="M36.406 42.795c0 9.878 5.324 18.657 13.574 24.235 8.25-5.578 13.574-14.356 13.574-24.235S58.23 24.138 49.98 18.561c-8.25 5.578-13.574 14.355-13.574 24.234z"></path></g><!----></svg>