<svg data-v-423bf9ae="" xmlns="http://www.w3.org/2000/svg" viewBox="0 0 471.83433605506707 163" class="iconAbove"><!----><!----><!----><g data-v-423bf9ae="" id="604801cb-c4b7-4a25-92b0-52bcd15b71be" fill="#FFFFFF" transform="matrix(5.917159562968884,0,0,5.917159562968884,-4.142008947662617,80.5739650052325)"><path d="M7.81 9.52C7.39 9.11 6.79 8.86 6.01 8.75C6.33 8.67 6.61 8.55 6.86 8.40C7.11 8.25 7.34 8.08 7.50 7.87C7.67 7.66 7.81 7.43 7.90 7.20C7.98 6.96 8.04 6.71 8.04 6.44C8.04 6.05 7.95 5.68 7.83 5.38C7.70 5.07 7.49 4.80 7.22 4.58C6.96 4.37 6.62 4.20 6.20 4.09C5.78 3.98 5.29 3.92 4.73 3.92L1.89 3.92L0.70 3.92L0.70 4.19C0.70 4.34 0.80 4.42 0.98 4.44L1.12 4.44C1.19 4.44 1.29 4.45 1.43 4.45C1.57 4.45 1.72 4.47 1.89 4.47L1.89 13.26C1.72 13.26 1.57 13.27 1.43 13.27C1.29 13.27 1.19 13.29 1.12 13.29L0.98 13.29C0.80 13.30 0.71 13.38 0.71 13.54L0.71 13.82L1.89 13.82L5.10 13.82C5.63 13.82 6.09 13.76 6.51 13.64C6.93 13.51 7.28 13.34 7.56 13.10C7.84 12.87 8.06 12.59 8.22 12.25C8.37 11.91 8.44 11.54 8.44 11.12C8.44 10.46 8.23 9.93 7.81 9.52ZM2.60 4.48L4.73 4.48C5.61 4.48 6.27 4.66 6.69 5.00C7.11 5.35 7.32 5.84 7.32 6.51C7.32 6.76 7.28 7.03 7.18 7.27C7.08 7.50 6.93 7.71 6.72 7.91C6.51 8.11 6.24 8.26 5.92 8.37C5.60 8.48 5.21 8.55 4.75 8.55L2.60 8.55ZM7.06 12.68C6.61 13.06 5.95 13.24 5.08 13.24L2.60 13.24L2.60 9.07L5.10 9.07C5.52 9.07 5.88 9.11 6.20 9.21C6.52 9.31 6.80 9.45 7.03 9.62C7.25 9.80 7.42 10.00 7.55 10.25C7.66 10.50 7.73 10.79 7.73 11.10C7.73 11.79 7.50 12.31 7.06 12.68ZM13.36 3.79C12.98 3.79 12.64 3.86 12.33 3.98C12.03 4.09 11.76 4.26 11.54 4.47C11.31 4.68 11.14 4.90 11.03 5.18C10.92 5.46 10.86 5.77 10.86 6.09C10.86 6.50 10.93 6.87 11.10 7.22C11.27 7.57 11.51 7.92 11.84 8.30C11.51 8.43 11.21 8.61 10.92 8.81C10.63 9.00 10.37 9.23 10.16 9.48C9.95 9.73 9.79 10.01 9.66 10.32C9.53 10.63 9.49 10.95 9.49 11.28C9.49 11.70 9.56 12.07 9.73 12.40C9.90 12.74 10.12 13.02 10.39 13.24C10.65 13.47 10.96 13.65 11.30 13.76C11.63 13.87 11.98 13.93 12.33 13.93C12.70 13.93 13.05 13.89 13.38 13.80C13.72 13.72 14.04 13.59 14.34 13.45C14.63 13.31 14.90 13.13 15.15 12.92C15.40 12.71 15.64 12.49 15.85 12.25L17.28 13.66C17.35 13.73 17.40 13.78 17.46 13.79C17.51 13.80 17.58 13.82 17.67 13.82L18.28 13.82L16.21 11.77C16.51 11.35 16.72 10.91 16.87 10.44C17.02 9.98 17.11 9.52 17.12 9.09L16.74 9.09C16.69 9.09 16.63 9.11 16.60 9.14C16.58 9.17 16.56 9.23 16.55 9.28C16.51 9.62 16.44 9.97 16.31 10.33C16.18 10.70 16.02 11.05 15.81 11.38L12.68 8.30C12.28 7.90 11.97 7.53 11.77 7.18C11.58 6.83 11.48 6.45 11.48 6.08C11.48 5.82 11.54 5.59 11.62 5.38C11.70 5.17 11.83 4.97 12.00 4.82C12.17 4.66 12.36 4.54 12.59 4.45C12.81 4.37 13.08 4.33 13.36 4.33C13.64 4.33 13.86 4.37 14.07 4.47C14.27 4.56 14.43 4.69 14.57 4.83C14.71 4.97 14.81 5.12 14.90 5.28C14.98 5.43 15.04 5.57 15.06 5.70C15.08 5.75 15.11 5.78 15.13 5.81C15.16 5.84 15.20 5.85 15.25 5.85C15.30 5.85 15.39 5.85 15.50 5.82C15.55 5.81 15.60 5.80 15.67 5.78C15.65 5.52 15.60 5.26 15.47 5.03C15.34 4.79 15.19 4.58 14.98 4.40C14.77 4.21 14.52 4.07 14.24 3.96C13.96 3.85 13.66 3.79 13.36 3.79ZM10.16 11.24C10.16 10.96 10.21 10.70 10.30 10.44C10.40 10.19 10.53 9.95 10.70 9.73C10.86 9.51 11.09 9.30 11.34 9.11C11.59 8.93 11.86 8.78 12.17 8.65C12.19 8.68 12.22 8.69 12.25 8.72L15.46 11.89C15.27 12.11 15.09 12.31 14.88 12.49C14.67 12.67 14.43 12.82 14.18 12.96C13.93 13.10 13.65 13.20 13.36 13.27C13.06 13.34 12.75 13.38 12.43 13.38C12.17 13.38 11.90 13.33 11.63 13.24C11.37 13.16 11.13 13.03 10.91 12.85C10.68 12.67 10.51 12.45 10.37 12.18C10.23 11.91 10.16 11.61 10.16 11.24ZM26.43 9.52C26.01 9.11 25.41 8.86 24.63 8.75C24.95 8.67 25.23 8.55 25.48 8.40C25.73 8.25 25.96 8.08 26.12 7.87C26.29 7.66 26.43 7.43 26.52 7.20C26.60 6.96 26.66 6.71 26.66 6.44C26.66 6.05 26.57 5.68 26.45 5.38C26.32 5.07 26.11 4.80 25.84 4.58C25.58 4.37 25.24 4.20 24.82 4.09C24.40 3.98 23.91 3.92 23.35 3.92L20.51 3.92L19.32 3.92L19.32 4.19C19.32 4.34 19.42 4.42 19.60 4.44L19.74 4.44C19.81 4.44 19.91 4.45 20.05 4.45C20.19 4.45 20.34 4.47 20.51 4.47L20.51 13.26C20.34 13.26 20.19 13.27 20.05 13.27C19.91 13.27 19.81 13.29 19.74 13.29L19.60 13.29C19.42 13.30 19.33 13.38 19.33 13.54L19.33 13.82L20.51 13.82L23.72 13.82C24.25 13.82 24.71 13.76 25.13 13.64C25.55 13.51 25.90 13.34 26.18 13.10C26.46 12.87 26.68 12.59 26.84 12.25C26.99 11.91 27.06 11.54 27.06 11.12C27.06 10.46 26.85 9.93 26.43 9.52ZM21.22 4.48L23.35 4.48C24.23 4.48 24.89 4.66 25.31 5.00C25.73 5.35 25.94 5.84 25.94 6.51C25.94 6.76 25.90 7.03 25.80 7.27C25.70 7.50 25.55 7.71 25.34 7.91C25.13 8.11 24.86 8.26 24.54 8.37C24.22 8.48 23.83 8.55 23.37 8.55L21.22 8.55ZM25.68 12.68C25.23 13.06 24.57 13.24 23.70 13.24L21.22 13.24L21.22 9.07L23.72 9.07C24.14 9.07 24.50 9.11 24.82 9.21C25.14 9.31 25.42 9.45 25.65 9.62C25.87 9.80 26.04 10.00 26.17 10.25C26.28 10.50 26.35 10.79 26.35 11.10C26.35 11.79 26.12 12.31 25.68 12.68ZM40.63 6.80C40.40 6.19 40.08 5.68 39.66 5.25C39.24 4.82 38.75 4.48 38.18 4.26C37.60 4.03 36.95 3.92 36.25 3.92L32.82 3.92L31.63 3.92L31.63 4.19C31.63 4.34 31.72 4.42 31.91 4.44L32.05 4.44C32.12 4.44 32.21 4.45 32.35 4.45C32.49 4.45 32.65 4.47 32.82 4.47L32.82 13.26C32.65 13.26 32.49 13.27 32.35 13.27C32.21 13.27 32.12 13.29 32.05 13.29L31.91 13.29C31.72 13.30 31.63 13.38 31.63 13.54L31.63 13.82L32.82 13.82L36.25 13.82C36.95 13.82 37.60 13.71 38.18 13.48C38.75 13.26 39.24 12.92 39.66 12.49C40.08 12.05 40.40 11.54 40.63 10.92C40.85 10.30 40.98 9.63 40.98 8.86C40.98 8.11 40.85 7.42 40.63 6.80ZM39.94 10.72C39.75 11.27 39.49 11.72 39.14 12.10C38.79 12.47 38.37 12.75 37.88 12.95C37.39 13.15 36.85 13.24 36.25 13.24L33.53 13.24L33.53 4.49L36.25 4.49C36.85 4.49 37.39 4.59 37.88 4.79C38.37 4.98 38.79 5.26 39.14 5.64C39.49 6.02 39.75 6.47 39.94 7.01C40.14 7.56 40.24 8.18 40.24 8.86C40.24 9.56 40.14 10.18 39.94 10.72ZM42.80 3.91L42.21 3.91L42.21 5.95L42.28 7.03C42.29 7.11 42.31 7.17 42.35 7.21C42.39 7.25 42.43 7.28 42.50 7.28C42.59 7.28 42.64 7.25 42.67 7.21C42.70 7.17 42.73 7.11 42.74 7.03L42.80 5.95ZM52.60 13.22L52.14 13.17L48.36 3.91L47.64 3.91L43.85 13.17L43.40 13.22C43.22 13.23 43.13 13.33 43.13 13.50L43.13 13.82L43.58 13.82L43.88 13.82L44.13 13.82L44.23 13.82L45.54 13.82L45.54 13.50C45.54 13.31 45.43 13.23 45.22 13.22C45.21 13.22 45.18 13.20 45.14 13.20C45.09 13.20 45.04 13.19 44.94 13.19C44.84 13.19 44.72 13.19 44.58 13.17L45.56 10.75L45.63 10.57L50.36 10.57L50.43 10.75L51.41 13.17C51.27 13.19 51.16 13.19 51.06 13.19C50.96 13.19 50.89 13.20 50.85 13.20C50.81 13.20 50.78 13.22 50.76 13.22C50.55 13.23 50.44 13.31 50.44 13.50L50.44 13.82L51.76 13.82L51.86 13.82L52.12 13.82L52.40 13.82L52.86 13.82L52.86 13.50C52.86 13.33 52.78 13.23 52.60 13.22ZM47.80 5.22C47.82 5.14 47.87 5.04 47.89 4.94C47.92 4.84 47.96 4.75 47.99 4.63C48.02 4.75 48.06 4.84 48.09 4.94C48.12 5.04 48.16 5.12 48.19 5.21L50.15 10.04L45.85 10.04ZM59.92 6.86L59.40 6.86L58.00 6.86L58.00 7.13C58.00 7.28 58.10 7.36 58.28 7.38L58.37 7.38C58.39 7.38 58.42 7.39 58.46 7.39L58.67 7.39C58.77 7.39 58.88 7.41 59.01 7.41L56.87 12.52C56.83 12.61 56.78 12.73 56.76 12.82C56.73 12.92 56.71 13.02 56.69 13.12C56.67 13.09 56.67 13.05 56.66 12.98C56.64 12.91 56.63 12.85 56.62 12.82C56.59 12.73 56.56 12.63 56.52 12.52L54.38 7.41C54.53 7.41 54.68 7.39 54.80 7.39C54.91 7.39 54.99 7.38 55.02 7.38L55.10 7.38C55.29 7.36 55.38 7.28 55.38 7.13L55.38 6.86L53.97 6.86L53.45 6.86L52.95 6.86L52.95 7.13C52.95 7.28 53.03 7.36 53.21 7.38C53.21 7.38 53.37 7.38 53.68 7.39L56.39 13.82L56.98 13.82L59.68 7.39L59.95 7.39C60.03 7.39 60.07 7.38 60.10 7.38L60.17 7.38C60.35 7.36 60.45 7.28 60.45 7.13L60.45 6.86ZM62.41 4.89C62.47 4.94 62.54 4.98 62.61 5.01C62.68 5.04 62.76 5.07 62.85 5.07C62.93 5.07 63.01 5.04 63.08 5.01C63.15 4.98 63.22 4.94 63.28 4.89C63.34 4.83 63.39 4.76 63.42 4.69C63.45 4.62 63.48 4.54 63.48 4.45C63.48 4.37 63.45 4.30 63.42 4.21C63.39 4.14 63.34 4.07 63.28 4.02C63.22 3.96 63.15 3.91 63.08 3.88C63.01 3.85 62.93 3.84 62.85 3.84C62.76 3.84 62.68 3.85 62.61 3.88C62.54 3.91 62.47 3.96 62.41 4.02C62.36 4.07 62.31 4.14 62.29 4.21C62.26 4.28 62.23 4.37 62.23 4.45C62.23 4.54 62.26 4.62 62.29 4.69C62.31 4.76 62.36 4.83 62.41 4.89ZM63.91 13.29L63.84 13.29L63.73 13.29C63.69 13.29 63.62 13.27 63.52 13.27C63.42 13.27 63.31 13.26 63.18 13.26L63.18 6.85L62.51 6.85L61.50 6.85L61.50 7.13C61.50 7.28 61.60 7.36 61.78 7.38L61.85 7.38C61.88 7.38 61.92 7.39 61.96 7.39L62.17 7.39C62.27 7.39 62.38 7.41 62.51 7.41L62.51 13.26C62.36 13.26 62.22 13.29 62.10 13.29L61.87 13.29L61.78 13.29C61.60 13.30 61.50 13.38 61.50 13.54L61.50 13.82L62.51 13.82L63.18 13.82L64.19 13.82L64.19 13.54C64.19 13.38 64.09 13.30 63.91 13.29ZM72.69 13.29L72.62 13.29L72.51 13.29C72.46 13.29 72.39 13.27 72.30 13.27C72.20 13.27 72.09 13.26 71.96 13.26L71.96 9.37C71.96 8.96 71.90 8.60 71.81 8.27C71.71 7.95 71.57 7.67 71.37 7.45C71.18 7.22 70.94 7.06 70.64 6.93C70.35 6.80 70.01 6.75 69.64 6.75C69.12 6.75 68.64 6.87 68.22 7.11C67.80 7.36 67.44 7.67 67.12 8.08L67.06 7.03C67.05 6.92 66.98 6.86 66.85 6.86L66.49 6.86L65.48 6.86L65.48 7.13C65.48 7.28 65.56 7.36 65.74 7.38L65.83 7.38C65.86 7.38 65.88 7.39 65.93 7.39L66.14 7.39C66.23 7.39 66.36 7.41 66.49 7.41L66.49 13.26C66.32 13.26 66.18 13.29 66.07 13.29L65.84 13.29L65.74 13.29C65.56 13.30 65.48 13.38 65.48 13.54L65.48 13.82L66.49 13.82L67.14 13.82L68.15 13.82L68.15 13.54C68.15 13.38 68.07 13.30 67.89 13.29L67.80 13.29L67.70 13.29C67.66 13.29 67.59 13.27 67.49 13.27C67.40 13.27 67.27 13.26 67.14 13.26L67.14 8.60C67.45 8.19 67.80 7.87 68.19 7.63C68.59 7.39 69.01 7.28 69.47 7.28C70.08 7.28 70.55 7.46 70.84 7.83C71.13 8.20 71.29 8.71 71.29 9.37L71.29 13.82L71.96 13.82L72.97 13.82L72.97 13.54C72.97 13.38 72.87 13.30 72.69 13.29ZM77.28 6.73C76.78 6.73 76.33 6.83 75.94 7.00C75.54 7.17 75.21 7.41 74.93 7.71C74.65 8.02 74.45 8.40 74.31 8.85C74.17 9.30 74.09 9.79 74.09 10.33C74.09 10.88 74.17 11.37 74.31 11.80C74.45 12.24 74.65 12.63 74.93 12.94C75.21 13.24 75.54 13.48 75.94 13.65C76.33 13.82 76.78 13.90 77.28 13.90C77.78 13.90 78.22 13.82 78.61 13.65C79.00 13.48 79.34 13.24 79.60 12.94C79.87 12.63 80.09 12.24 80.23 11.80C80.37 11.37 80.44 10.88 80.44 10.33C80.44 9.79 80.37 9.30 80.23 8.85C80.09 8.40 79.87 8.02 79.60 7.71C79.34 7.41 79.00 7.17 78.61 7.00C78.22 6.83 77.78 6.73 77.28 6.73ZM77.28 13.38C76.86 13.38 76.50 13.31 76.19 13.17C75.88 13.03 75.61 12.82 75.40 12.56C75.19 12.29 75.05 11.97 74.94 11.59C74.83 11.21 74.79 10.79 74.79 10.33C74.79 9.87 74.83 9.45 74.94 9.07C75.05 8.69 75.19 8.37 75.40 8.11C75.61 7.84 75.88 7.62 76.19 7.48C76.50 7.34 76.86 7.27 77.28 7.27C77.70 7.27 78.05 7.34 78.36 7.48C78.67 7.62 78.93 7.84 79.14 8.11C79.35 8.37 79.51 8.69 79.60 9.07C79.70 9.45 79.76 9.87 79.76 10.33C79.76 10.79 79.70 11.21 79.60 11.59C79.51 11.97 79.35 12.29 79.14 12.56C78.93 12.82 78.67 13.03 78.36 13.17C78.05 13.31 77.70 13.38 77.28 13.38Z"></path></g><!----><g data-v-423bf9ae="" id="d27dcc5e-ab9f-45f2-bd43-5fda54bef2ee" transform="matrix(1.5821301141773731,0,0,1.5821301141773731,157.403873740569,-28.804917528906657)" stroke="none" fill="#87544E"><path d="M84.494 32.769c-6.481-1.252-13.045-.589-18.771 2.029a30.68 30.68 0 0 1 1.063 7.998c0 9.552-4.4 18.414-12.171 24.791 8.304.499 16.402-2.143 22.343-8.083 6.984-6.985 9.427-16.958 7.536-26.735z"></path><path d="M86.757 49.471c-1.496 4.631-4.017 8.841-7.516 12.338-5.86 5.86-13.905 9.107-22.653 9.107h-.001c-.388 0-.78-.013-1.172-.03 6.388 3.98 13.913 5.579 21.388 3.896 9.637-2.168 17.033-9.289 20.663-18.562-3.168-2.981-6.81-5.282-10.709-6.749zM43.299 70.916c-8.748 0-16.793-3.247-22.654-9.108-3.498-3.498-6.021-7.706-7.517-12.336-3.899 1.467-7.54 3.768-10.707 6.749 3.63 9.272 11.026 16.394 20.663 18.562 7.475 1.683 15 .084 21.386-3.896-.392.017-.783.029-1.171.029z"></path><path d="M33.174 42.795c0-2.727.362-5.396 1.054-7.969-5.742-2.642-12.33-3.315-18.837-2.058-1.89 9.777.553 19.75 7.538 26.734 5.957 5.957 14.084 8.599 22.411 8.079-7.767-6.375-12.166-15.235-12.166-24.786z"></path><path d="M36.406 42.795c0 9.878 5.324 18.657 13.574 24.235 8.25-5.578 13.574-14.356 13.574-24.235S58.23 24.138 49.98 18.561c-8.25 5.578-13.574 14.355-13.574 24.234z"></path></g><!----></svg>